<svg width="40" height="40" viewBox="0 0 40 40" fill="none" xmlns="http://www.w3.org/2000/svg">
<g clip-path="url(#clip0_55_27)">
<path d="M0.85526 19.7608C0.854322 23.1216 1.73925 26.4031 3.42191 29.2955L0.694336 39.178L10.886 36.5262C13.7048 38.0491 16.8632 38.847 20.0727 38.8472H20.0811C30.6763 38.8472 39.301 30.2917 39.3055 19.7759C39.3076 14.6802 37.3096 9.88857 33.6796 6.28361C30.0503 2.67896 25.2233 0.692755 20.0803 0.69043C9.48389 0.69043 0.85979 9.24547 0.855416 19.7608" fill="url(#paint0_linear_55_27)"/>
<path d="M0.168882 19.7544C0.167788 23.2361 1.08443 26.635 2.82709 29.631L0.00170898 39.8678L10.5588 37.1209C13.4676 38.6947 16.7426 39.5245 20.0751 39.5257H20.0837C31.059 39.5257 39.9936 30.6625 39.9983 19.7702C40.0001 14.4915 37.9303 9.5276 34.1706 5.79349C30.4105 2.05984 25.4109 0.00217054 20.0837 0C9.10655 0 0.173257 8.86202 0.168882 19.7544ZM6.45584 29.115L6.06166 28.4941C4.40461 25.8795 3.53 22.8581 3.53125 19.7557C3.53484 10.7022 10.9598 3.33643 20.09 3.33643C24.5115 3.33829 28.6667 5.04868 31.7921 8.15194C34.9173 11.2555 36.637 15.3811 36.6359 19.769C36.6318 28.8225 29.2067 36.1892 20.0837 36.1892H20.0772C17.1066 36.1876 14.1933 35.396 11.6526 33.9L11.0479 33.5442L4.78317 35.1741L6.45584 29.1149V29.115Z" fill="url(#paint1_linear_55_27)"/>
<path d="M15.1063 11.496C14.7336 10.6738 14.3413 10.6573 13.9868 10.6428C13.6965 10.6304 13.3646 10.6314 13.0331 10.6314C12.7012 10.6314 12.1621 10.7552 11.7063 11.249C11.2501 11.7433 9.9646 12.9377 9.9646 15.367C9.9646 17.7965 11.7477 20.1442 11.9963 20.474C12.2452 20.8031 15.4387 25.948 20.4964 27.9272C24.6997 29.572 25.5551 29.2449 26.4674 29.1624C27.3798 29.0802 29.4115 27.9683 29.826 26.8152C30.2408 25.6624 30.2408 24.6742 30.1165 24.4676C29.9921 24.2619 29.6602 24.1383 29.1626 23.8915C28.6649 23.6445 26.2185 22.45 25.7625 22.2852C25.3062 22.1205 24.9746 22.0383 24.6427 22.5328C24.3109 23.0264 23.358 24.1383 23.0675 24.4676C22.7774 24.7977 22.487 24.8388 21.9895 24.5918C21.4916 24.3441 19.8891 23.8233 17.9878 22.1413C16.5086 20.8324 15.5099 19.2162 15.2196 18.7218C14.9293 18.2281 15.1885 17.9605 15.438 17.7145C15.6616 17.4932 15.9358 17.1379 16.1848 16.8497C16.433 16.5613 16.5158 16.3555 16.6817 16.0262C16.8478 15.6966 16.7646 15.4083 16.6404 15.1613C16.5158 14.9143 15.5488 12.4723 15.1063 11.496Z" fill="white"/>
</g>
<defs>
<linearGradient id="paint0_linear_55_27" x1="1931.26" y1="3849.45" x2="1931.26" y2="0.69043" gradientUnits="userSpaceOnUse">
<stop stop-color="#1FAF38"/>
<stop offset="1" stop-color="#60D669"/>
</linearGradient>
<linearGradient id="paint1_linear_55_27" x1="1999.83" y1="3986.78" x2="1999.83" y2="0" gradientUnits="userSpaceOnUse">
<stop stop-color="#F9F9F9"/>
<stop offset="1" stop-color="white"/>
</linearGradient>
<clipPath id="clip0_55_27">
<rect width="40" height="40" fill="white"/>
</clipPath>
</defs>
</svg>
